<svg xmlns="http://www.w3.org/2000/svg" version="1.1" xmlns:xlink="http://www.w3.org/1999/xlink" xmlns:svgjs="http://svgjs.dev/svgjs" width="1000" height="1000" viewBox="0 0 1000 1000"><rect width="1000" height="1000" fill="#194bfb"></rect><g transform="matrix(0.75,0,0,0.75,126.89868421052631,367.5943175)"><svg viewBox="0 0 95 34" data-background-color="#194bfb" preserveAspectRatio="xMidYMid meet" height="357" width="1000" xmlns="http://www.w3.org/2000/svg" xmlns:xlink="http://www.w3.org/1999/xlink"><g id="tight-bounds" transform="matrix(1,0,0,1,-0.24049999999999727,-0.1865799999999922)"><svg viewBox="0 0 95.481 34.37316" height="34.37316" width="95.481"><g><svg viewBox="0 0 95.481 34.37316" height="34.37316" width="95.481"><g><svg viewBox="0 0 95.481 34.37316" height="34.37316" width="95.481"><g id="textblocktransform"><svg viewBox="0 0 95.481 34.37316" height="34.37316" width="95.481" id="textblock"><g><svg viewBox="0 0 95.481 34.37316" height="34.37316" width="95.481"><g><svg viewBox="0 0 95.481 34.37316" height="34.37316" width="95.481"><g><svg xmlns="http://www.w3.org/2000/svg" xmlns:xlink="http://www.w3.org/1999/xlink" version="1.1" x="0" y="0" viewBox="0 32 100 36" enable-background="new 0 0 100 100" xml:space="preserve" height="34.37316" width="95.481" class="icon-icon-0" data-fill-palette-color="accent" id="icon-0"><g fill="#f8fafc" data-fill-palette-color="accent"><path d="M82 32H51c-9.925 0-18 7.851-18 17.5V51h10v-1.5c0-4.136 3.589-7.5 8-7.5h31c4.411 0 8 3.589 8 8 0 4.506-2.419 8-4.5 8H76c-2.761 0-5 2.238-5 5s2.239 5 5 5h9.5c7.995 0 14.5-8.075 14.5-18S91.925 32 82 32z" fill="#f8fafc" data-fill-palette-color="accent"></path><path d="M57 50.5c0 4.136-3.589 7.5-8 7.5H18c-4.411 0-8-3.589-8-8 0-4.506 2.419-8 4.5-8H24c2.761 0 5-2.238 5-5s-2.239-5-5-5h-9.5C6.505 32 0 40.075 0 50s8.075 18 18 18h31c9.925 0 18-7.851 18-17.5V49H57V50.5z" fill="#f8fafc" data-fill-palette-color="accent"></path></g></svg></g></svg></g></svg></g></svg></g></svg></g></svg></g><defs></defs></svg><rect fill="none" stroke="none" visibility="hidden"></rect></g></svg></g></svg>